<?xml version="1.0" encoding="UTF-8" standalone="no"?>
<!DOCTYPE svg PUBLIC "-//W3C//DTD SVG 1.1//EN" "http://www.w3.org/Graphics/SVG/1.1/DTD/svg11.dtd">
<svg version="1.1" xmlns="http://www.w3.org/2000/svg" xmlns:xlink="http://www.w3.org/1999/xlink" preserveAspectRatio="xMidYMid meet" viewBox="0 0 200 300" width="200" height="300"><defs><path d="M38.47 81.51C38.47 69.5 48.23 59.76 60.22 59.76C72.23 59.76 81.98 69.52 81.98 81.51C81.98 83.16 81.76 84.77 81.42 86.3C83.5 90.88 85.17 96.04 86.66 101.3C90.81 95.76 93.35 88.98 93.35 81.51C93.35 63.21 78.52 48.39 60.22 48.39C41.92 48.39 27.12 63.21 27.12 81.51C27.12 97.27 38.13 110.41 52.88 113.75C51.51 109.18 50.22 104.6 49.25 100.19C42.84 96.4 38.47 89.49 38.47 81.51Z" id="b5gTJebb"></path><path d="M38.47 81.51C38.47 69.5 48.23 59.76 60.22 59.76C72.23 59.76 81.98 69.52 81.98 81.51C81.98 83.16 81.76 84.77 81.42 86.3C83.5 90.88 85.17 96.04 86.66 101.3C90.81 95.76 93.35 88.98 93.35 81.51C93.35 63.21 78.52 48.39 60.22 48.39C41.92 48.39 27.12 63.21 27.12 81.51C27.12 97.27 38.13 110.41 52.88 113.75C51.51 109.18 50.22 104.6 49.25 100.19C42.84 96.4 38.47 89.49 38.47 81.51Z" id="djHbdNZ1I"></path><path d="M79.81 181.64C78.72 172.43 77.17 168.31 73.68 156.4C70.9 146.91 65.6 129.8 60.8 113.47C54.33 91.6 52.46 81.45 61.06 78.91C70.31 76.21 75.62 89.37 80.43 107.59C85.91 128.35 88.78 137.5 90.39 137.03C93.23 136.21 89.36 127.34 96.78 125.14C106.07 122.44 107.88 129.7 110.48 128.99C113.08 128.19 112.2 120.83 119.61 118.67C127.05 116.52 130.8 125.69 133.88 124.78C136.91 123.89 136.83 120.57 141.44 119.26C146.04 117.89 163.35 125.63 173.26 159.49C185.68 202.05 171.69 209.95 175.93 224.36C170.38 226.46 125.98 243.35 120.42 245.45C115.94 234.66 102.02 233.86 89.7 226.98C77.29 219.99 68.88 206.39 36.54 207.05C24.4 207.29 24.97 197.6 29.99 192.16C38.15 183.35 47.32 186.8 59.59 188.67C70.13 190.3 80.49 187.34 79.81 181.64Z" id="cFMvZMn"></path><path d="M79.81 181.64C78.72 172.43 77.17 168.31 73.68 156.4C70.9 146.91 65.6 129.8 60.8 113.47C54.33 91.6 52.46 81.45 61.06 78.91C70.31 76.21 75.62 89.37 80.43 107.59C85.91 128.35 88.78 137.5 90.39 137.03C93.23 136.21 89.36 127.34 96.78 125.14C106.07 122.44 107.88 129.7 110.48 128.99C113.08 128.19 112.2 120.83 119.61 118.67C127.05 116.52 130.8 125.69 133.88 124.78C136.91 123.89 136.83 120.57 141.44 119.26C146.04 117.89 163.35 125.63 173.26 159.49C185.68 202.05 171.69 209.95 175.93 224.36C170.38 226.46 125.98 243.35 120.42 245.45C115.94 234.66 102.02 233.86 89.7 226.98C77.29 219.99 68.88 206.39 36.54 207.05C24.4 207.29 24.97 197.6 29.99 192.16C38.15 183.35 47.32 186.8 59.59 188.67C70.13 190.3 80.49 187.34 79.81 181.64Z" id="d1ySdjgR0d"></path></defs><g><g><g><use xlink:href="#b5gTJebb" opacity="1" fill="#fff6f7" fill-opacity="1"></use><g><use xlink:href="#b5gTJebb" opacity="1" fill-opacity="0" stroke="#000000" stroke-width="1" stroke-opacity="0"></use></g></g><g><use xlink:href="#djHbdNZ1I" opacity="1" fill="#000000" fill-opacity="0"></use><g><use xlink:href="#djHbdNZ1I" opacity="1" fill-opacity="0" stroke="#000000" stroke-width="1" stroke-opacity="0"></use></g></g><g><use xlink:href="#cFMvZMn" opacity="1" fill="#fff6f7" fill-opacity="1"></use><g><use xlink:href="#cFMvZMn" opacity="1" fill-opacity="0" stroke="#000000" stroke-width="1" stroke-opacity="0"></use></g></g><g><use xlink:href="#d1ySdjgR0d" opacity="1" fill="#000000" fill-opacity="0"></use><g><use xlink:href="#d1ySdjgR0d" opacity="1" fill-opacity="0" stroke="#000000" stroke-width="1" stroke-opacity="0"></use></g></g></g></g></svg>