<?xml version="1.0" encoding="UTF-8" standalone="no"?>
<!DOCTYPE svg PUBLIC "-//W3C//DTD SVG 1.1//EN" "http://www.w3.org/Graphics/SVG/1.1/DTD/svg11.dtd">
<svg version="1.1" xmlns="http://www.w3.org/2000/svg" xmlns:xlink="http://www.w3.org/1999/xlink" preserveAspectRatio="xMidYMid meet" viewBox="0 0 200 300" width="200" height="300"><defs><path d="M81.78 98.45C60.07 104.7 43.11 121.66 36.87 143.37C37.09 143.37 38.77 143.37 38.99 143.37C45.74 120.46 69.8 107.37 92.7 114.12C106.79 118.27 117.8 129.27 121.95 143.37C130.14 143.37 154.68 143.37 162.86 143.37C152.87 108.58 116.57 88.48 81.78 98.45Z" id="dKhlRFoRf"></path><path d="M81.78 98.45C60.07 104.7 43.11 121.66 36.87 143.37C37.09 143.37 38.77 143.37 38.99 143.37C45.74 120.46 69.8 107.37 92.7 114.12C106.79 118.27 117.8 129.27 121.95 143.37C130.14 143.37 154.68 143.37 162.86 143.37C152.87 108.58 116.57 88.48 81.78 98.45Z" id="cXD43swfu"></path><path d="M99.99 77.71C142.54 77.71 177.02 112.19 177.02 154.74C176.97 197.26 142.52 231.71 99.99 231.76C57.46 231.76 22.98 197.28 22.98 154.74C22.98 112.19 57.46 77.71 99.99 77.71ZM99.99 225.89C139.27 225.89 171.12 194.05 171.12 154.78C171.12 154.78 171.12 154.78 171.12 154.78C171.07 115.52 139.25 83.7 99.99 83.67C60.72 83.67 28.88 115.5 28.88 154.78C28.88 194.05 60.72 225.89 99.99 225.89Z" id="g1jwJF6QfZ"></path><path d="M99.99 76.71C142.54 76.71 177.02 111.19 177.02 153.74C176.97 196.26 142.52 230.71 99.99 230.76C57.46 230.76 22.98 196.28 22.98 153.74C22.98 111.19 57.46 76.71 99.99 76.71ZM99.99 224.89C139.27 224.89 171.12 193.05 171.12 153.78C171.12 153.78 171.12 153.78 171.12 153.78C171.07 114.52 139.25 82.7 99.99 82.67C60.72 82.67 28.88 114.5 28.88 153.78C28.88 193.05 60.72 224.89 99.99 224.89Z" id="a8AMMfAh3"></path></defs><g><g><g><use xlink:href="#dKhlRFoRf" opacity="1" fill="#fff6f8" fill-opacity="1"></use><g><use xlink:href="#dKhlRFoRf" opacity="1" fill-opacity="0" stroke="#000000" stroke-width="1" stroke-opacity="0"></use></g></g><g><use xlink:href="#cXD43swfu" opacity="1" fill="#000000" fill-opacity="0"></use><g><use xlink:href="#cXD43swfu" opacity="1" fill-opacity="0" stroke="#000000" stroke-width="1" stroke-opacity="0"></use></g></g><g><use xlink:href="#g1jwJF6QfZ" opacity="1" fill="#fff6f8" fill-opacity="1"></use><g><use xlink:href="#g1jwJF6QfZ" opacity="1" fill-opacity="0" stroke="#000000" stroke-width="1" stroke-opacity="0"></use></g></g><g><use xlink:href="#a8AMMfAh3" opacity="1" fill="#000000" fill-opacity="0"></use><g><use xlink:href="#a8AMMfAh3" opacity="1" fill-opacity="0" stroke="#fff5f5" stroke-width="4" stroke-opacity="1"></use></g></g></g></g></svg>