<?xml version="1.0" encoding="UTF-8" standalone="no"?>
<!DOCTYPE svg PUBLIC "-//W3C//DTD SVG 1.1//EN" "http://www.w3.org/Graphics/SVG/1.1/DTD/svg11.dtd">
<svg version="1.1" xmlns="http://www.w3.org/2000/svg" xmlns:xlink="http://www.w3.org/1999/xlink" preserveAspectRatio="xMidYMid meet" viewBox="0 0 200 300" width="200" height="300"><defs><path d="M35.52 103.67C35.52 105.61 35.52 115.25 35.52 132.6C36.49 132.6 41.31 132.6 50 132.6L50 103.67L151.86 103.67L151.86 205.26L50 205.26L50 176.02C41.31 176.02 36.49 176.02 35.52 176.02C35.52 193.38 35.52 203.02 35.52 204.95C35.52 213.05 42.19 219.43 50 219.43C63.05 219.43 138.81 219.43 151.86 219.43C159.96 219.43 166.34 213.07 166.34 204.95C166.34 194.82 166.34 113.81 166.34 103.67C166.03 95.58 159.65 89.19 151.55 89.19C125.51 89.19 63.02 89.19 50 89.19C41.88 89.19 35.52 95.86 35.52 103.67ZM79.2 125.39L79.2 147.09L6.87 147.09L6.87 161.57L79.2 161.57L79.2 183.25L108.13 154.32L79.2 125.39Z" id="c4dIma5LR"></path><path d="M35.52 103.67C35.52 105.61 35.52 115.25 35.52 132.6C36.49 132.6 41.31 132.6 50 132.6L50 103.67L151.86 103.67L151.86 205.26L50 205.26L50 176.02C41.31 176.02 36.49 176.02 35.52 176.02C35.52 193.38 35.52 203.02 35.52 204.95C35.52 213.05 42.19 219.43 50 219.43C63.05 219.43 138.81 219.43 151.86 219.43C159.96 219.43 166.34 213.07 166.34 204.95C166.34 194.82 166.34 113.81 166.34 103.67C166.03 95.58 159.65 89.19 151.55 89.19C125.51 89.19 63.02 89.19 50 89.19C41.88 89.19 35.52 95.86 35.52 103.67ZM79.2 125.39L79.2 147.09L6.87 147.09L6.87 161.57L79.2 161.57L79.2 183.25L108.13 154.32L79.2 125.39Z" id="a2ZuWohIrC"></path></defs><g><g><g><use xlink:href="#c4dIma5LR" opacity="1" fill="#fef1f1" fill-opacity="1"></use><g><use xlink:href="#c4dIma5LR" opacity="1" fill-opacity="0" stroke="#000000" stroke-width="1" stroke-opacity="0"></use></g></g><g><use xlink:href="#a2ZuWohIrC" opacity="1" fill="#000000" fill-opacity="0"></use><g><use xlink:href="#a2ZuWohIrC" opacity="1" fill-opacity="0" stroke="#000000" stroke-width="1" stroke-opacity="0"></use></g></g></g></g></svg>