<?xml version="1.0" encoding="UTF-8" standalone="no"?>
<!DOCTYPE svg PUBLIC "-//W3C//DTD SVG 1.1//EN" "http://www.w3.org/Graphics/SVG/1.1/DTD/svg11.dtd">
<svg version="1.1" xmlns="http://www.w3.org/2000/svg" xmlns:xlink="http://www.w3.org/1999/xlink" preserveAspectRatio="xMidYMid meet" viewBox="0 0 200 300" width="200" height="300"><defs><path d="M160.43 209.65C160.43 207.79 160.43 198.51 160.43 181.79C159.48 181.79 154.74 181.79 146.2 181.79L146.2 209.65C86.17 209.65 52.81 209.65 46.14 209.65C46.14 161.97 46.14 132.16 46.14 120.25C46.14 115.61 49.97 111.86 54.69 111.86C66.9 111.86 97.4 111.86 146.2 111.86C146.2 113.74 146.2 123.12 146.2 140.01C154.74 140.01 159.48 140.01 160.43 140.01C160.43 123.3 160.43 114.01 160.43 112.16C160.43 104.37 153.89 98.22 146.2 98.22C133.39 98.22 58.96 98.22 46.14 98.22C38.19 98.22 31.91 104.34 31.91 112.16C31.91 121.9 31.91 199.9 31.91 209.65C32.22 217.44 38.5 223.59 46.45 223.59C72.02 223.59 133.41 223.59 146.2 223.59C154.19 223.59 160.43 217.17 160.43 209.65ZM164.91 133.05L164.91 153.95L93.84 153.95L93.84 167.89L164.91 167.89L164.91 188.75L193.33 160.9L164.91 133.05Z" id="g16KMR7Wh8"></path><path d="M160.43 209.65C160.43 207.79 160.43 198.51 160.43 181.79C159.48 181.79 154.74 181.79 146.2 181.79L146.2 209.65C86.17 209.65 52.81 209.65 46.14 209.65C46.14 161.97 46.14 132.16 46.14 120.25C46.14 115.61 49.97 111.86 54.69 111.86C66.9 111.86 97.4 111.86 146.2 111.86C146.2 113.74 146.2 123.12 146.2 140.01C154.74 140.01 159.48 140.01 160.43 140.01C160.43 123.3 160.43 114.01 160.43 112.16C160.43 104.37 153.89 98.22 146.2 98.22C133.39 98.22 58.96 98.22 46.14 98.22C38.19 98.22 31.91 104.34 31.91 112.16C31.91 121.9 31.91 199.9 31.91 209.65C32.22 217.44 38.5 223.59 46.45 223.59C72.02 223.59 133.41 223.59 146.2 223.59C154.19 223.59 160.43 217.17 160.43 209.65ZM164.91 133.05L164.91 153.95L93.84 153.95L93.84 167.89L164.91 167.89L164.91 188.75L193.33 160.9L164.91 133.05Z" id="b1IJOW4eSn"></path></defs><g><g><g><use xlink:href="#g16KMR7Wh8" opacity="1" fill="#fef1f1" fill-opacity="1"></use><g><use xlink:href="#g16KMR7Wh8" opacity="1" fill-opacity="0" stroke="#000000" stroke-width="1" stroke-opacity="0"></use></g></g><g><use xlink:href="#b1IJOW4eSn" opacity="1" fill="#000000" fill-opacity="0"></use><g><use xlink:href="#b1IJOW4eSn" opacity="1" fill-opacity="0" stroke="#000000" stroke-width="1" stroke-opacity="0"></use></g></g></g></g></svg>