<?xml version="1.0" encoding="UTF-8" standalone="no"?>
<!DOCTYPE svg PUBLIC "-//W3C//DTD SVG 1.1//EN" "http://www.w3.org/Graphics/SVG/1.1/DTD/svg11.dtd">
<svg version="1.1" xmlns="http://www.w3.org/2000/svg" xmlns:xlink="http://www.w3.org/1999/xlink" preserveAspectRatio="xMidYMid meet" viewBox="0 0 200 300" width="200" height="300"><defs><path d="M130.61 252.85L130.61 179.3" id="a5oPYKN7N"></path><path d="M130.61 252.85L130.61 179.3" id="a57tBXWJxE"></path><path d="M166.78 157.87L130.61 116.04L130.61 59.01" id="a2NepiJyEO"></path><path d="M166.78 157.87L130.61 116.04L130.61 59.01" id="caAzWjyhI"></path><path d="M69.44 252.85L69.44 230.35L51.2 209.25L79.57 181.88L51.2 154.2L79.57 128.23L51.2 105.73L69.44 81.51L69.44 59.01" id="a33DseYR0Z"></path><path d="M69.44 252.85L69.44 230.35L51.2 209.25L79.57 181.88L51.2 154.2L79.57 128.23L51.2 105.73L69.44 81.51L69.44 59.01" id="f7LCSYKsac"></path><path d="M148.7 115.51C148.7 125.49 140.59 133.6 130.61 133.6C120.63 133.6 112.53 125.49 112.53 115.51C112.53 105.53 120.63 97.43 130.61 97.43C140.59 97.43 148.7 105.53 148.7 115.51Z" id="b7nbXn4wz"></path><path d="M148.7 179.3C148.7 189.28 140.59 197.39 130.61 197.39C120.63 197.39 112.53 189.28 112.53 179.3C112.53 169.32 120.63 161.21 130.61 161.21C140.59 161.21 148.7 169.32 148.7 179.3Z" id="auOS5i1i3"></path></defs><g><g><g><use xlink:href="#a5oPYKN7N" opacity="1" fill="#000000" fill-opacity="0"></use><g><use xlink:href="#a5oPYKN7N" opacity="1" fill-opacity="0" stroke="#000000" stroke-width="1" stroke-opacity="0"></use></g></g><g><use xlink:href="#a57tBXWJxE" opacity="1" fill="#000000" fill-opacity="0"></use><g><use xlink:href="#a57tBXWJxE" opacity="1" fill-opacity="0" stroke="#ffeded" stroke-width="14" stroke-opacity="1"></use></g></g><g><use xlink:href="#a2NepiJyEO" opacity="1" fill="#000000" fill-opacity="0"></use><g><use xlink:href="#a2NepiJyEO" opacity="1" fill-opacity="0" stroke="#000000" stroke-width="1" stroke-opacity="0"></use></g></g><g><use xlink:href="#caAzWjyhI" opacity="1" fill="#000000" fill-opacity="0"></use><g><use xlink:href="#caAzWjyhI" opacity="1" fill-opacity="0" stroke="#ffeded" stroke-width="14" stroke-opacity="1"></use></g></g><g><use xlink:href="#a33DseYR0Z" opacity="1" fill="#000000" fill-opacity="0"></use><g><use xlink:href="#a33DseYR0Z" opacity="1" fill-opacity="0" stroke="#000000" stroke-width="1" stroke-opacity="0"></use></g></g><g><use xlink:href="#f7LCSYKsac" opacity="1" fill="#000000" fill-opacity="0"></use><g><use xlink:href="#f7LCSYKsac" opacity="1" fill-opacity="0" stroke="#fff3f3" stroke-width="14" stroke-opacity="1"></use></g></g><g><use xlink:href="#b7nbXn4wz" opacity="1" fill="#ffeded" fill-opacity="1"></use></g><g><use xlink:href="#auOS5i1i3" opacity="1" fill="#ffeded" fill-opacity="1"></use></g></g></g></svg>