<?xml version="1.0" encoding="UTF-8" standalone="no"?>
<!DOCTYPE svg PUBLIC "-//W3C//DTD SVG 1.1//EN" "http://www.w3.org/Graphics/SVG/1.1/DTD/svg11.dtd">
<svg version="1.1" xmlns="http://www.w3.org/2000/svg" xmlns:xlink="http://www.w3.org/1999/xlink" preserveAspectRatio="xMidYMid meet" viewBox="0 0 200 300" width="200" height="300"><defs><path d="M130.61 252.85L130.61 179.3" id="cRFu2TIRA"></path><path d="M130.61 252.85L130.61 179.3" id="e3nxFYVKjF"></path><path d="M166.78 157.87L130.61 116.04L130.61 59.01" id="e7QuqbwZWT"></path><path d="M69.44 252.85L69.44 230.35L51.2 209.25L79.57 181.88L51.2 154.2L79.57 128.23L51.2 105.73L69.44 81.51L69.44 59.01" id="c2hr3IfJDB"></path><path d="M69.44 252.85L69.44 230.35L51.2 209.25L79.57 181.88L51.2 154.2L79.57 128.23L51.2 105.73L69.44 81.51L69.44 59.01" id="arCzBswtF"></path><path d="M130.61 59.01L130.61 183.22" id="c8P8gdWXU"></path><path d="M148.7 126.53C148.7 136.51 140.59 144.61 130.61 144.61C120.63 144.61 112.53 136.51 112.53 126.53C112.53 116.54 120.63 108.44 130.61 108.44C140.59 108.44 148.7 116.54 148.7 126.53Z" id="b62DdO66A"></path><path d="M148.7 189.05C148.7 199.04 140.59 207.14 130.61 207.14C120.63 207.14 112.53 199.04 112.53 189.05C112.53 179.07 120.63 170.97 130.61 170.97C140.59 170.97 148.7 179.07 148.7 189.05Z" id="a3a413cy0g"></path></defs><g><g><g><use xlink:href="#cRFu2TIRA" opacity="1" fill="#000000" fill-opacity="0"></use><g><use xlink:href="#cRFu2TIRA" opacity="1" fill-opacity="0" stroke="#000000" stroke-width="1" stroke-opacity="0"></use></g></g><g><use xlink:href="#e3nxFYVKjF" opacity="1" fill="#000000" fill-opacity="0"></use><g><use xlink:href="#e3nxFYVKjF" opacity="1" fill-opacity="0" stroke="#ffeded" stroke-width="14" stroke-opacity="1"></use></g></g><g><use xlink:href="#e7QuqbwZWT" opacity="1" fill="#000000" fill-opacity="0"></use><g><use xlink:href="#e7QuqbwZWT" opacity="1" fill-opacity="0" stroke="#000000" stroke-width="1" stroke-opacity="0"></use></g></g><g><use xlink:href="#c2hr3IfJDB" opacity="1" fill="#000000" fill-opacity="0"></use><g><use xlink:href="#c2hr3IfJDB" opacity="1" fill-opacity="0" stroke="#000000" stroke-width="1" stroke-opacity="0"></use></g></g><g><use xlink:href="#arCzBswtF" opacity="1" fill="#000000" fill-opacity="0"></use><g><use xlink:href="#arCzBswtF" opacity="1" fill-opacity="0" stroke="#fff3f3" stroke-width="14" stroke-opacity="1"></use></g></g><g><g><use xlink:href="#c8P8gdWXU" opacity="1" fill-opacity="0" stroke="#ffeded" stroke-width="14" stroke-opacity="1"></use></g></g><g><use xlink:href="#b62DdO66A" opacity="1" fill="#ffeded" fill-opacity="1"></use></g><g><use xlink:href="#a3a413cy0g" opacity="1" fill="#ffeded" fill-opacity="1"></use></g></g></g></svg>