<?xml version="1.0" encoding="UTF-8" standalone="no"?>
<!DOCTYPE svg PUBLIC "-//W3C//DTD SVG 1.1//EN" "http://www.w3.org/Graphics/SVG/1.1/DTD/svg11.dtd">
<svg version="1.1" xmlns="http://www.w3.org/2000/svg" xmlns:xlink="http://www.w3.org/1999/xlink" preserveAspectRatio="xMidYMid meet" viewBox="0 0 200 300" width="200" height="300"><defs><path d="M86.57 54.33C86.54 54.43 86.43 54.9 86.18 55.77C86.17 60.58 86.14 84.67 86.09 128.03C86.05 171.39 86.03 195.48 86.02 200.3C85.13 200.86 84.66 201.18 84.57 201.25C77.1 206.23 72.37 213.33 70.55 222.29C70.08 224.52 69.94 229.52 70.21 232.03C71.83 245.65 81.93 256.82 95.35 259.8C112.25 263.53 129.17 253.23 133.56 236.48C134.4 233.23 134.52 232.28 134.52 228.14C134.52 224.07 134.38 223 133.47 219.63C131.92 213.88 128.35 208.12 123.92 204.21C122.46 202.91 120.28 201.27 119.12 200.64C119.05 200.61 118.82 200.48 118.37 200.23C118.37 199.64 118.37 196.69 118.37 191.38L118.37 182.55L123.92 182.55L129.47 182.55L129.47 180.51L129.47 178.46L123.92 178.46L118.37 178.46L118.37 165.38L118.37 152.32L123.92 152.32L129.47 152.32L129.47 150.28L129.47 148.23L123.92 148.23L118.37 148.23L118.37 135.17L118.37 122.09L123.92 122.09L129.47 122.09L129.47 120.05L129.47 118L123.98 117.98L118.46 117.91L118.41 104.9L118.37 91.89L123.92 91.89L129.47 91.89L129.47 89.75L129.47 87.61L123.92 87.61C120.59 87.61 118.74 87.61 118.37 87.61C118.37 78.26 118.37 73.05 118.37 72.03C118.37 57.5 118.34 56.34 118.05 54.9C117.39 51.74 115.89 49.01 113.43 46.62C109.7 42.98 104.49 41.35 99.46 42.28C97.87 42.57 96.71 42.96 95.23 43.69C90.89 45.85 87.86 49.58 86.57 54.33ZM112.66 56.45C112.66 61.36 112.67 85.9 112.7 130.08C112.73 174.26 112.74 198.8 112.75 203.71C113.95 204.41 114.61 204.8 114.75 204.89C120.05 208.03 123.32 211.4 125.78 216.22C130.13 224.72 129.65 234.64 124.55 242.56C120.66 248.63 114.66 252.73 107.4 254.29C104.83 254.84 99.78 254.84 97.14 254.29C88.89 252.57 82.29 247.49 78.49 239.94C74.92 232.78 74.94 223.77 78.58 216.51C81.02 211.65 84.61 207.92 89.75 204.89C89.89 204.82 90.62 204.41 91.91 203.66C91.91 159.94 91.91 135.67 91.91 130.81C91.91 84.22 91.98 57.56 92.07 56.81C92.44 54.43 93.37 52.56 95.12 50.81C96.26 49.67 98.17 48.53 99.6 48.19C100.01 48.1 100.51 47.97 100.69 47.92C101.35 47.78 104.45 47.99 105.29 48.24C108.49 49.26 111.09 51.81 112.2 55.06C112.22 55.15 112.38 55.61 112.66 56.45Z" id="bl5NWwbSY"></path><path d="M86.57 54.33C86.54 54.43 86.43 54.9 86.18 55.77C86.17 60.58 86.14 84.67 86.09 128.03C86.05 171.39 86.03 195.48 86.02 200.3C85.13 200.86 84.66 201.18 84.57 201.25C77.1 206.23 72.37 213.33 70.55 222.29C70.08 224.52 69.94 229.52 70.21 232.03C71.83 245.65 81.93 256.82 95.35 259.8C112.25 263.53 129.17 253.23 133.56 236.48C134.4 233.23 134.52 232.28 134.52 228.14C134.52 224.07 134.38 223 133.47 219.63C131.92 213.88 128.35 208.12 123.92 204.21C122.46 202.91 120.28 201.27 119.12 200.64C119.05 200.61 118.82 200.48 118.37 200.23C118.37 199.64 118.37 196.69 118.37 191.38L118.37 182.55L123.92 182.55L129.47 182.55L129.47 180.51L129.47 178.46L123.92 178.46L118.37 178.46L118.37 165.38L118.37 152.32L123.92 152.32L129.47 152.32L129.47 150.28L129.47 148.23L123.92 148.23L118.37 148.23L118.37 135.17L118.37 122.09L123.92 122.09L129.47 122.09L129.47 120.05L129.47 118L123.98 117.98L118.46 117.91L118.41 104.9L118.37 91.89L123.92 91.89L129.47 91.89L129.47 89.75L129.47 87.61L123.92 87.61C120.59 87.61 118.74 87.61 118.37 87.61C118.37 78.26 118.37 73.05 118.37 72.03C118.37 57.5 118.34 56.34 118.05 54.9C117.39 51.74 115.89 49.01 113.43 46.62C109.7 42.98 104.49 41.35 99.46 42.28C97.87 42.57 96.71 42.96 95.23 43.69C90.89 45.85 87.86 49.58 86.57 54.33ZM112.66 56.45C112.66 61.36 112.67 85.9 112.7 130.08C112.73 174.26 112.74 198.8 112.75 203.71C113.95 204.41 114.61 204.8 114.75 204.89C120.05 208.03 123.32 211.4 125.78 216.22C130.13 224.72 129.65 234.64 124.55 242.56C120.66 248.63 114.66 252.73 107.4 254.29C104.83 254.84 99.78 254.84 97.14 254.29C88.89 252.57 82.29 247.49 78.49 239.94C74.92 232.78 74.94 223.77 78.58 216.51C81.02 211.65 84.61 207.92 89.75 204.89C89.89 204.82 90.62 204.41 91.91 203.66C91.91 159.94 91.91 135.67 91.91 130.81C91.91 84.22 91.98 57.56 92.07 56.81C92.44 54.43 93.37 52.56 95.12 50.81C96.26 49.67 98.17 48.53 99.6 48.19C100.01 48.1 100.51 47.97 100.69 47.92C101.35 47.78 104.45 47.99 105.29 48.24C108.49 49.26 111.09 51.81 112.2 55.06C112.22 55.15 112.38 55.61 112.66 56.45Z" id="b1tQUHNItY"></path><path d="M94.69 206.71C87.25 209.35 81.61 215.79 79.92 223.52C79.38 226.14 79.38 230.39 79.92 232.91C81.99 242.22 89.14 249.13 98.39 250.79C100.53 251.16 104.1 251.16 106.24 250.79C113.38 249.5 119.53 244.92 122.76 238.46C123.69 236.64 124.26 235.05 124.71 232.91C125.28 230.37 125.28 226.14 124.71 223.52C123.03 215.79 117.39 209.35 109.97 206.71C109.88 206.69 109.45 206.53 108.63 206.23C108.63 204.01 108.63 192.89 108.63 172.89L108.63 139.52L102.33 139.52L96.01 139.52L96.01 172.89L96.01 206.23C95.19 206.54 94.75 206.69 94.69 206.71Z" id="d5kVQk5pcM"></path><path d="M94.69 206.71C87.25 209.35 81.61 215.79 79.92 223.52C79.38 226.14 79.38 230.39 79.92 232.91C81.99 242.22 89.14 249.13 98.39 250.79C100.53 251.16 104.1 251.16 106.24 250.79C113.38 249.5 119.53 244.92 122.76 238.46C123.69 236.64 124.26 235.05 124.71 232.91C125.28 230.37 125.28 226.14 124.71 223.52C123.03 215.79 117.39 209.35 109.97 206.71C109.88 206.69 109.45 206.53 108.63 206.23C108.63 204.01 108.63 192.89 108.63 172.89L108.63 139.52L102.33 139.52L96.01 139.52L96.01 172.89L96.01 206.23C95.19 206.54 94.75 206.69 94.69 206.71Z" id="c3FyulmK9x"></path></defs><g><g><g><use xlink:href="#bl5NWwbSY" opacity="1" fill="#fff5f5" fill-opacity="1"></use><g><use xlink:href="#bl5NWwbSY" opacity="1" fill-opacity="0" stroke="#000000" stroke-width="1" stroke-opacity="0"></use></g></g><g><use xlink:href="#b1tQUHNItY" opacity="1" fill="#000000" fill-opacity="0"></use><g><use xlink:href="#b1tQUHNItY" opacity="1" fill-opacity="0" stroke="#000000" stroke-width="1" stroke-opacity="0"></use></g></g><g><use xlink:href="#d5kVQk5pcM" opacity="1" fill="#fff5f5" fill-opacity="1"></use><g><use xlink:href="#d5kVQk5pcM" opacity="1" fill-opacity="0" stroke="#000000" stroke-width="1" stroke-opacity="0"></use></g></g><g><use xlink:href="#c3FyulmK9x" opacity="1" fill="#000000" fill-opacity="0"></use><g><use xlink:href="#c3FyulmK9x" opacity="1" fill-opacity="0" stroke="#000000" stroke-width="1" stroke-opacity="0"></use></g></g></g></g></svg>